Coordinates
version=1
nRows=14
nColumns=42
inDegrees=yes

Units are S.I. units (second, meters, Newtons, ...)
If the header above contains a line with 'inDegrees', this indicates whether rotational values are in degrees (yes) or radians (no).

endheader
time	pelvis_tilt	pelvis_list	pelvis_rotation	pelvis_tx	pelvis_ty	pelvis_tz	hip_flexion_r	hip_adduction_r	hip_rotation_r	knee_angle_r	knee_adduction_r	knee_angle_r_beta	ankle_angle_r	subtalar_angle_r	mtp_angle_r	hip_flexion_l	hip_adduction_l	hip_rotation_l	knee_angle_l	knee_adduction_l	knee_angle_l_beta	ankle_angle_l	subtalar_angle_l	mtp_angle_l	lumbar_extension	lumbar_bending	lumbar_rotation	arm_flex_r	arm_add_r	arm_rot_r	elbow_flex_r	pro_sup_r	wrist_flex_r	wrist_dev_r	arm_flex_l	arm_add_l	arm_rot_l	elbow_flex_l	pro_sup_l	wrist_flex_l	wrist_dev_l
      0.85000000	     10.45618462	      0.33192373	     -6.85411901	      0.24730251	      0.84217280	     -0.29160420	      9.86259310	     -5.70896825	    -16.73292200	     53.46771546	    -12.56294268	      0.93318768	     11.30992963	     -0.89545063	     -7.54179213	    -11.71973913	      5.02802630	    -11.09886475	     10.39302011	      3.15155369	      0.18139242	     18.52172781	      2.07189076	     -7.54179213	    -23.67399557	     -2.99723807	      3.59391809	      5.00074006	    -16.49895777	     -1.07513246	     35.71640796	     90.00000001	      0.00000000	      0.00000000	     -3.46357173	     -8.05319037	    -32.98823669	     35.01194159	     90.00000001	      0.00000000	      0.00000000
      0.86000000	     10.19127395	     -0.10317277	     -6.43227657	      0.26171454	      0.84223117	     -0.29234128	     11.25682139	     -4.89584079	    -17.29510324	     50.55154079	    -11.93941132	      0.88229083	     11.89927907	     -0.57953719	     -7.54018713	    -13.35683348	      4.61429123	    -11.09877631	      8.93380219	      3.35188538	      0.15592426	     18.84044457	      2.97907299	     -7.54018713	    -23.37609439	     -2.16805683	      2.93194401	      5.02097275	    -16.40118229	     -1.28159544	     35.27005191	     90.00000001	      0.00000000	      0.00000000	     -2.99242653	     -8.11341753	    -31.02605230	     36.61890118	     90.00000001	      0.00000000	      0.00000000
      0.87000000	     10.06149921	     -0.52323447	     -5.85288754	      0.27639869	      0.84199097	     -0.29303352	     12.22786496	     -4.18110997	    -18.02187969	     47.25144205	    -11.11056801	      0.82469324	     12.27072465	     -0.34241257	     -7.53845891	    -15.07725244	      4.16790511	    -11.11321759	      7.61333351	      3.52790817	      0.13287774	     19.09441175	      3.78560507	     -7.53845891	    -23.19370420	     -1.36174025	      2.19265302	      4.91012693	    -16.27812696	     -1.60161131	     34.93329193	     90.00000001	      0.00000000	      0.00000000	     -2.55921319	     -8.36172320	    -28.71699634	     38.34157256	     90.00000001	      0.00000000	      0.00000000
      0.88000000	      9.55209504	     -0.56514743	     -5.45968921	      0.29070311	      0.84062543	     -0.29394714	     13.76670161	     -3.94395958	    -18.45305735	     44.10148494	    -10.09801143	      0.76971612	     12.69866989	     -0.37132840	     -7.53753893	    -16.05197589	      4.25814590	    -11.36371380	      6.74142235	      3.42246486	      0.11766002	     19.32640566	      4.45156058	     -7.53753893	    -22.57587382	     -0.94188146	      1.45263809	      4.84730155	    -16.22164540	     -1.76814418	     34.68561896	     90.00000001	      0.00000000	      0.00000000	     -1.91503688	     -8.45563702	    -27.52036664	     39.85242039	     90.00000001	      0.00000000	      0.00000000
      0.89000000	      9.66486648	     -0.88381998	     -4.84497636	      0.30572578	      0.83974001	     -0.29458506	     14.10990815	     -3.53778785	    -19.24492649	     40.33439740	     -8.85277009	      0.70396804	     12.97407003	     -0.19753833	     -7.53616867	    -18.00493989	      3.77762581	    -11.49872756	      5.53595746	      3.90679515	      0.09662068	     19.71600479	      5.40502029	     -7.53616867	    -22.61231599	     -0.27899559	      0.62572849	      4.82334652	    -16.10837565	     -2.22232353	     34.25561170	     90.00000001	      0.00000000	      0.00000000	     -1.58379563	     -8.86727347	    -25.21870162	     41.80650904	     90.00000001	      0.00000000	      0.00000000
      0.90000000	      9.41763925	     -0.88197166	     -4.36365492	      0.32032166	      0.83791950	     -0.29529287	     14.92905199	     -3.50538184	    -19.96116128	     36.66323182	     -7.54610152	      0.63989411	     13.25933700	      0.18299092	     -7.53493681	    -19.19931834	      3.79426244	    -11.83218569	      4.86491053	      4.00810237	      0.08490871	     20.01550703	      6.01726164	     -7.53493681	    -22.26871115	      0.03267406	     -0.12255010	      4.70062658	    -16.02233263	     -2.62326792	     34.05019073	     90.00000001	      0.00000000	      0.00000000	     -0.99540140	     -9.19241990	    -23.65135459	     43.48452334	     90.00000001	      0.00000000	      0.00000000
      0.91000000	      9.27482249	     -0.86088377	     -3.93154659	      0.33507073	      0.83589478	     -0.29582819	     15.51272133	     -3.50624961	    -20.97195515	     32.87980719	     -6.35579061	      0.57386089	     13.55178256	      1.07357452	     -7.53336943	    -20.49208765	      3.81419526	    -12.34109627	      4.27072529	      4.15796242	      0.07453822	     20.30105615	      6.57220894	     -7.53336943	    -22.03491470	      0.28499055	     -0.77926420	      4.55428515	    -15.95150104	     -3.19203045	     33.89532520	     90.00000001	      0.00000000	      0.00000000	     -0.35556119	     -9.55145704	    -22.10422819	     45.06635486	     90.00000001	      0.00000000	      0.00000000
      0.92000000	      9.05393225	     -0.65458607	     -3.52010654	      0.34967625	      0.83349038	     -0.29649930	     16.09172979	     -3.78500745	    -21.92136995	     29.12523445	     -4.97994905	      0.50833124	     13.92072382	      2.59764711	     -7.53186845	    -21.54783798	      4.05651112	    -12.86780764	      3.92565677	      4.23600100	      0.06851564	     20.60147029	      7.18777231	     -7.53186845	    -21.72990094	      0.34991910	     -1.44632931	      4.41433489	    -15.90360070	     -3.72597630	     33.75403608	     90.00000001	      0.00000000	      0.00000000	      0.33522547	     -9.85990729	    -20.87624394	     46.65214764	     90.00000001	      0.00000000	      0.00000000
      0.93000000	      8.85660896	     -0.42568682	     -3.10437230	      0.36437887	      0.83091105	     -0.29700638	     16.51248818	     -4.10841487	    -23.08457257	     25.39454649	     -3.60353745	      0.44321845	     14.28024043	      4.93274504	     -7.53018957	    -22.57488982	      4.27194268	    -13.51192399	      3.72749714	      4.32481020	      0.06505710	     20.93347402	      7.89383782	     -7.53018957	    -21.45949331	      0.37014091	     -2.10161144	      4.24575476	    -15.82481647	     -4.34905633	     33.71257892	     90.00000001	      0.00000000	      0.00000000	      1.04286595	    -10.20755350	    -19.71020774	     48.13928227	     90.00000001	      0.00000000	      0.00000000
      0.94000000	      8.18455407	      0.26400361	     -2.97067442	      0.37870763	      0.82745337	     -0.29757417	     17.81362986	     -4.99157586	    -23.85052072	     22.53917584	     -2.17182071	      0.39338283	     14.16059665	      5.81905688	     -7.52965741	    -22.83595089	      5.11454606	    -14.28564207	      3.88975570	      4.21596196	      0.06788904	     21.13504591	      7.99729715	     -7.52965741	    -20.68189044	     -0.12852385	     -2.55931802	      3.92136376	    -15.87861834	     -4.47524982	     33.72105847	     90.00000001	      0.00000000	      0.00000000	      1.96142002	    -10.31936399	    -19.28732371	     49.24110188	     90.00000001	      0.00000000	      0.00000000
      0.95000000	      8.52327233	      0.13416281	     -2.35146100	      0.39393613	      0.82556899	     -0.29779345	     16.88304097	     -4.82435626	    -25.00364717	     18.25877194	     -0.67384884	      0.31867569	     14.60922493	     10.27404335	     -7.52818228	    -24.52680934	      4.72821819	    -14.65428918	      3.75084711	      4.43328982	      0.06546463	     21.46344402	      9.28301396	     -7.52818228	    -21.02576207	      0.26969092	     -3.19888720	      3.82419924	    -15.77139637	     -5.47116982	     33.75820649	     90.00000001	      0.00000000	      0.00000000	      2.52535435	    -10.78768924	    -17.67883409	     50.93997927	     90.00000001	      0.00000000	      0.00000000
      0.96000000	      8.36866701	      0.42089368	     -1.93777304	      0.40892736	      0.82285878	     -0.29809040	     17.00045717	     -5.19931952	    -26.16339939	     15.25184045	      0.59979227	      0.26619483	     14.63025315	     13.58441000	     -7.52665952	    -25.39696615	      4.84131489	    -15.15867409	      4.06050911	      4.47528178	      0.07086925	     21.74163172	     10.17608432	     -7.52665952	    -20.82805451	      0.21336668	     -3.69629622	      3.54283332	    -15.71819648	     -6.24147205	     33.89014391	     90.00000001	      0.00000000	      0.00000000	      3.26314429	    -11.02910221	    -16.80816130	     52.19541804	     90.00000001	      0.00000000	      0.00000000
      0.97000000	      8.25236450	      0.69381133	     -1.58879456	      0.42399034	      0.82025229	     -0.29820388	     17.06267225	     -5.49396629	    -26.82933128	     12.70110480	      1.76006825	      0.22167610	     14.48437025	     16.16161757	     -7.52551467	    -26.26114614	      4.91635776	    -15.46818491	      4.48259795	      4.46490885	      0.07823609	     21.88061915	     10.86913802	     -7.52551467	    -20.68403634	      0.14479188	     -4.08082630	      3.25019264	    -15.71811379	     -6.81595798	     34.03013602	     90.00000001	      0.00000000	      0.00000000	      3.97587679	    -11.22670147	    -16.01067818	     53.39179017	     90.00000001	      0.00000000	      0.00000000
      0.98000000	      8.03189586	      1.07742783	     -1.29172753	      0.43905869	      0.81760398	     -0.29836535	     17.35172008	     -5.91073269	    -26.97081258	     10.86202057	      2.73640641	      0.18957802	     14.06249972	     17.79690335	     -7.52497405	    -26.92729259	      5.14282719	    -15.44978483	      5.01283718	      4.28991804	      0.08749051	     21.86623961	     11.34038726	     -7.52497405	    -20.43907711	     -0.03782726	     -4.44236303	      2.94472416	    -15.77778137	     -7.13526411	     34.21818181	     90.00000001	      0.00000000	      0.00000000	      4.64512847	    -11.31698825	    -15.48941488	     54.43845151	     90.00000001	      0.00000000	      0.00000000
